<svg xmlns="http://www.w3.org/2000/svg" viewBox="0 0 128 128" width="100%" height="100%">
  <path d="M64 14C82 22 100 24 104 26C104 56 94 88 64 114C34 88 24 56 24 26C28 24 46 22 64 14Z" 
        fill="#1E40AF" stroke="#FFFFFF" stroke-width="6" stroke-linejoin="round"/>
  
  <path d="M64 17C49 23.5 35 25 31.5 26.5C31.5 52 39.5 78.5 64 102.5V17Z" 
        fill="#2563EB"/>

  <line x1="72" y1="72" x2="98" y2="98" stroke="#94A3B8" stroke-width="12" stroke-linecap="round"/>
  <line x1="88" y1="88" x2="96" y2="96" stroke="#64748B" stroke-width="12" stroke-linecap="round"/>
  
  <circle cx="56" cy="56" r="24" fill="#1E293B" stroke="#F8FAFC" stroke-width="6"/>
  <circle cx="56" cy="56" r="21" fill="#38BDF8" fill-opacity="0.2"/>

  <line x1="38" y1="56" x2="74" y2="56" stroke="#F97316" stroke-width="4" stroke-linecap="round" opacity="0.9"/>
  
  <path d="M68 40L70 45L75 47L70 49L68 54L66 49L61 47L66 45Z" fill="#FACC15"/>
</svg>
